<?xml version="1.0" standalone="no"?>
<!DOCTYPE svg PUBLIC "-//W3C//DTD SVG 20010904//EN"
 "http://www.w3.org/TR/2001/REC-SVG-20010904/DTD/svg10.dtd">
<svg version="1.0" xmlns="http://www.w3.org/2000/svg"
 width="2000.000000pt" height="616.000000pt" viewBox="0 0 2000.000000 616.000000"
 preserveAspectRatio="xMidYMid meet">

<g transform="translate(0.000000,616.000000) scale(0.100000,-0.100000)"
fill="#000000" stroke="none">
<path d="M9415 5011 c-46 -20 -102 -79 -111 -117 -4 -14 -4 -49 -2 -79 6 -66
42 -119 102 -146 162 -74 323 102 240 263 -25 48 -111 98 -168 98 -12 0 -39
-9 -61 -19z"/>
<path d="M10140 3795 l0 -1085 175 0 175 0 0 455 0 455 515 0 515 0 0 170 0
170 -512 2 -513 3 0 278 0 278 90 3 c50 2 309 4 578 5 l487 1 0 175 0 175
-755 0 -755 0 0 -1085z"/>
<path d="M7260 3790 l0 -1080 170 0 170 0 2 453 3 452 450 0 450 0 3 -452 2
-453 170 0 170 0 0 1080 0 1080 -170 0 -170 0 -2 -452 -3 -453 -450 0 -450 0
-3 453 -2 452 -170 0 -170 0 0 -1080z"/>
<path d="M13890 4475 l0 -214 -132 -3 -133 -3 -3 -172 -2 -173 135 0 135 0 0
-389 c0 -214 4 -412 10 -442 33 -182 203 -360 392 -410 63 -17 158 -22 182
-11 11 6 44 16 71 22 63 15 155 63 206 109 l40 36 -132 122 -132 122 -35 -27
c-51 -39 -124 -38 -176 2 -78 59 -76 44 -76 479 l0 387 215 0 215 0 -2 173 -3
172 -212 3 -213 2 0 215 0 215 -175 0 -175 0 0 -215z"/>
<path d="M18651 4278 c-315 -32 -598 -274 -683 -585 -16 -61 -21 -107 -21
-208 0 -101 5 -147 21 -208 73 -266 303 -497 568 -568 108 -30 298 -32 404 -5
186 47 348 153 457 300 24 33 40 62 36 66 -4 4 -73 37 -152 74 l-145 66 -56
-54 c-94 -90 -186 -126 -327 -126 -185 0 -346 100 -423 263 l-30 62 612 5 613
5 8 55 c11 75 -9 249 -37 332 -90 257 -318 466 -562 512 -110 20 -185 24 -283
14z m230 -354 c63 -18 109 -45 162 -93 45 -41 99 -116 90 -125 -10 -10 -781
-7 -788 3 -8 15 110 136 163 167 106 62 258 82 373 48z"/>
<path d="M9310 3485 l0 -775 175 0 175 0 0 759 c0 418 -3 766 -6 775 -5 14
-30 16 -175 16 l-169 0 0 -775z"/>
<path d="M12947 4253 c-4 -3 -7 -218 -7 -478 0 -509 -3 -542 -54 -624 -54 -85
-156 -128 -282 -118 -126 9 -203 60 -253 167 l-26 55 -3 498 -3 497 -175 0
-175 0 4 -542 c4 -525 4 -546 26 -622 74 -263 228 -384 511 -402 86 -6 103 -4
173 20 91 30 131 56 205 128 l52 51 0 -87 0 -86 175 2 175 3 0 763 c0 419 0
767 0 772 0 11 -332 14 -343 3z"/>
<path d="M15990 3813 c-1 -474 -7 -559 -48 -639 -45 -87 -118 -132 -233 -141
-140 -12 -257 47 -311 155 -23 47 -23 48 -28 552 l-5 505 -175 0 -175 0 0
-515 c0 -455 2 -525 18 -604 59 -290 243 -438 547 -440 86 -1 115 3 164 22 68
27 131 68 194 128 25 24 47 44 49 44 2 0 3 -38 3 -85 l0 -85 175 0 175 0 -2
773 -3 772 -172 3 -173 2 0 -447z"/>
<path d="M17349 4246 c-64 -17 -133 -60 -196 -121 -30 -28 -56 -48 -59 -43 -3
4 -4 43 -3 86 l2 77 -174 0 -174 0 -3 -768 -2 -767 174 2 175 3 4 490 c4 544
5 554 70 631 55 63 117 89 212 89 79 -1 142 -21 208 -67 16 -11 21 -10 34 7
33 45 172 279 168 285 -9 14 -155 80 -210 95 -70 18 -162 19 -226 1z"/>
<path d="M19455 2368 c-3 -13 -4 -167 -3 -343 l3 -320 30 0 30 1 3 342 2 342
-30 0 c-22 0 -31 -5 -35 -22z"/>
<path d="M11567 2342 c-22 -24 -21 -45 2 -66 26 -23 63 -17 78 14 25 50 -42
94 -80 52z"/>
<path d="M7260 1900 l0 -440 35 0 35 0 0 200 0 200 228 2 227 3 -1 35 0 35
-227 3 -227 2 0 160 0 160 258 2 257 3 0 35 0 35 -292 3 -293 2 0 -440z"/>
<path d="M16040 1901 l0 -441 39 0 40 0 3 218 3 219 28 42 c55 82 163 103 248
47 66 -44 74 -73 77 -313 l3 -213 35 0 34 0 0 216 c0 122 -5 234 -11 258 -42
166 -279 215 -386 81 l-28 -35 -5 177 -5 178 -37 3 -38 3 0 -440z"/>
<path d="M18577 2333 c-4 -3 -7 -82 -7 -175 l0 -169 -43 35 c-60 49 -106 66
-180 66 -83 0 -145 -22 -202 -72 -69 -61 -98 -125 -103 -228 -3 -69 0 -95 17
-141 77 -203 315 -269 473 -130 20 17 37 31 39 31 2 0 3 -20 1 -45 l-4 -45 41
0 41 0 0 440 0 440 -33 0 c-19 0 -37 -3 -40 -7z m-133 -333 c34 -13 68 -35 90
-60 l36 -40 0 -129 c0 -126 -1 -130 -27 -161 -97 -116 -272 -119 -369 -6 -136
159 -25 411 183 415 18 1 57 -8 87 -19z"/>
<path d="M8760 2170 l0 -90 -61 0 -60 0 3 -37 3 -38 55 -1 55 -1 5 -214 c5
-234 9 -252 69 -302 60 -50 141 -58 213 -21 l31 16 -31 31 c-25 25 -34 29 -44
19 -29 -29 -123 0 -148 47 -7 13 -9 91 -8 222 l3 201 90 2 90 1 3 38 3 37 -95
0 -96 0 0 90 0 90 -40 0 -40 0 0 -90z"/>
<path d="M10600 2096 c-93 -25 -163 -87 -209 -186 -22 -47 -26 -68 -26 -145 1
-74 5 -98 24 -133 34 -66 97 -128 160 -159 126 -62 294 -22 382 90 l41 51 -22
18 c-32 26 -43 23 -78 -21 -110 -137 -329 -115 -407 42 -14 28 -25 61 -25 74
l0 23 281 0 282 0 -6 55 c-6 58 -42 148 -77 192 -35 44 -94 82 -156 98 -69 18
-103 18 -164 1z m202 -102 c49 -34 110 -119 106 -146 -3 -18 -16 -19 -228 -19
-254 0 -251 -1 -207 74 53 89 122 129 219 124 56 -2 74 -8 110 -33z"/>
<path d="M13862 2095 c-98 -27 -168 -90 -214 -191 -17 -37 -22 -68 -23 -129 0
-71 4 -88 33 -147 60 -122 159 -183 297 -182 120 0 223 62 280 166 37 68 47
197 21 274 -53 160 -231 255 -394 209z m173 -79 c130 -55 194 -199 146 -328
-24 -62 -88 -129 -146 -154 -57 -23 -135 -18 -196 14 -186 97 -186 357 0 454
61 32 139 37 196 14z"/>
<path d="M16878 2097 c-51 -15 -110 -55 -134 -92 -19 -29 -14 -40 26 -54 27
-9 32 -7 47 15 38 59 145 82 213 45 58 -30 80 -73 80 -152 l0 -68 -42 15 c-59
21 -180 22 -249 1 -61 -18 -123 -74 -135 -122 -11 -44 4 -116 32 -153 71 -92
249 -98 356 -12 20 17 39 30 41 30 3 0 2 -20 -1 -45 l-5 -45 42 0 41 0 0 228
c0 236 -5 277 -43 332 -45 68 -173 104 -269 77z m215 -352 c13 -5 17 -19 17
-60 0 -64 -30 -107 -95 -136 -79 -36 -203 -19 -239 32 -21 30 -21 88 0 118 33
46 89 62 199 58 55 -3 108 -8 118 -12z"/>
<path d="M18958 2096 c-60 -21 -84 -42 -107 -89 -58 -119 7 -226 159 -261 91
-21 135 -41 159 -72 55 -70 -13 -154 -123 -154 -76 0 -119 25 -161 94 -8 14
-15 15 -43 5 -38 -13 -37 -32 7 -89 76 -98 263 -116 360 -34 42 35 65 111 50
169 -20 77 -74 117 -216 155 -101 27 -133 53 -133 108 0 21 6 45 13 54 58 72
192 61 239 -19 20 -34 48 -42 77 -24 13 8 12 15 -4 51 -24 53 -63 86 -127 105
-62 18 -101 18 -150 1z"/>
<path d="M10160 2090 c-52 -9 -94 -35 -129 -77 l-31 -38 0 58 0 57 -35 0 -35
0 0 -315 0 -315 34 0 35 0 3 218 3 219 28 41 c47 72 119 95 212 67 26 -7 61
47 41 64 -19 16 -88 28 -126 21z"/>
<path d="M15375 2090 c-46 -10 -90 -36 -118 -70 -14 -16 -28 -30 -31 -30 -3 0
-6 23 -6 51 l0 50 -37 -3 -38 -3 -3 -312 -2 -313 39 0 40 0 3 218 3 219 28 41
c47 72 119 95 212 67 26 -8 61 47 41 64 -19 16 -97 28 -131 21z"/>
<path d="M17615 2090 c-55 -8 -99 -34 -132 -75 l-28 -35 -5 52 c-5 53 -5 53
-40 53 l-35 0 -3 -312 -2 -313 39 0 40 0 3 219 3 219 30 43 c76 109 242 100
300 -16 18 -36 20 -64 23 -252 l3 -213 35 0 34 0 0 221 c0 242 -6 277 -52 334
-49 59 -129 87 -213 75z"/>
<path d="M8417 2083 c-4 -3 -7 -100 -7 -215 0 -226 -5 -253 -62 -305 -72 -67
-201 -53 -260 29 -22 32 -23 41 -26 261 l-3 227 -40 0 -39 0 0 -217 c0 -120 5
-234 10 -254 24 -84 84 -140 176 -160 78 -18 146 5 203 66 l41 45 0 -50 0 -50
40 0 40 0 0 315 0 315 -33 0 c-19 0 -37 -3 -40 -7z"/>
<path d="M9647 2083 c-4 -3 -7 -99 -7 -212 0 -235 -8 -265 -76 -317 -33 -25
-46 -29 -104 -29 -57 0 -72 4 -102 27 -66 51 -73 77 -76 316 l-3 212 -35 0
-34 0 0 -216 c0 -254 7 -290 64 -349 40 -42 116 -75 171 -75 46 0 115 32 150
71 19 21 37 39 40 39 3 0 5 -20 5 -45 l0 -45 40 0 40 0 0 315 0 315 -33 0
c-19 0 -37 -3 -40 -7z"/>
<path d="M11570 1775 l0 -315 35 0 35 0 0 315 0 315 -35 0 -35 0 0 -315z"/>
<path d="M11870 1776 l0 -316 40 0 40 0 0 208 c0 180 3 212 19 248 45 100 167
132 262 69 64 -42 69 -65 69 -309 l0 -216 41 0 40 0 -3 238 c-3 231 -4 238
-28 282 -14 24 -44 58 -68 74 -37 26 -55 31 -116 34 -85 5 -133 -14 -184 -72
l-31 -36 -3 53 -3 52 -37 3 -38 3 0 -315z"/>
<path d="M12900 2081 c0 -4 17 -42 38 -82 22 -41 93 -180 160 -310 l121 -235
-37 -99 c-43 -114 -77 -149 -142 -143 -32 3 -35 0 -38 -25 -5 -38 14 -57 54
-57 43 0 127 51 153 93 22 36 321 830 321 853 0 11 -9 14 -37 12 -42 -3 -31
19 -155 -318 -39 -107 -74 -199 -78 -203 -4 -5 -40 54 -80 130 -40 76 -100
190 -133 253 -33 63 -64 121 -70 128 -11 14 -77 17 -77 3z"/>
<path d="M14867 2083 c-4 -3 -7 -99 -7 -212 0 -223 -7 -259 -61 -308 -73 -67
-196 -55 -257 25 l-27 35 -5 226 -5 226 -37 3 -38 3 0 -218 c0 -120 5 -234 10
-254 24 -84 84 -140 176 -160 78 -18 146 5 203 66 l41 45 0 -50 0 -50 40 0 40
0 0 315 0 315 -33 0 c-19 0 -37 -3 -40 -7z"/>
<path d="M19444 1525 c-30 -45 13 -99 61 -77 32 15 40 47 21 77 -22 33 -60 33
-82 0z"/>
</g>
</svg>
